<svg xmlns="http://www.w3.org/2000/svg" width="300" height="450" viewBox="0 0 300 450">
  <rect width="300" height="450" fill="#374151" />
  <text x="150" y="225" font-family="Arial, sans-serif" font-size="24" fill="#9CA3AF" text-anchor="middle">
    No Poster Available
  </text>
  <path d="M150 160 C123 160 100 183 100 210 C100 222 105 233 112 241 C115 244 119 240 116 237 C110 230 106 220 106 210 C106 186 126 166 150 166 C174 166 194 186 194 210 C194 220 191 230 184 237 C181 240 185 244 188 241 C196 233 200 222 200 210 C200 183 177 160 150 160 Z" fill="#9CA3AF" />
  <path d="M150 266 C133 266 118 269 107 275 C101 278 100 285 100 290 L100 296 L200 296 L200 290 C200 285 199 278 193 275 C182 269 167 266 150 266 Z" fill="#9CA3AF" />
  <circle cx="150" cy="210" r="40" fill="#9CA3AF" />
  <rect x="75" y="320" width="150" height="15" rx="4" fill="#9CA3AF" />
  <rect x="75" y="345" width="150" height="15" rx="4" fill="#9CA3AF" />
  <rect x="75" y="370" width="100" height="15" rx="4" fill="#9CA3AF" />
</svg> 